<svg xmlns="http://www.w3.org/2000/svg" width="512" height="512" viewBox="0 0 512 512" version="1.1">
	<path d="M 268 15.121 C 250.559 17.125, 228.317 23.157, 213.099 30.009 C 206.171 33.129, 203.017 34, 198.652 34 C 182.879 34, 155.278 40.008, 136 47.638 C 108.282 58.608, 87.344 72.427, 68.371 92.273 C 37.153 124.928, 16.709 167.477, 9.404 215 C 7.262 228.937, 6.946 262.395, 8.842 274.500 C 11.387 290.748, 14.300 303.684, 18.066 315.464 C 32.383 360.246, 57.645 396.837, 92.084 422.674 C 113.158 438.485, 127.422 445.534, 152.500 452.534 L 164.500 455.883 153.841 455.942 C 135.250 456.043, 92.967 458.960, 80 461.035 C 57.510 464.634, 41.863 469.309, 40.510 472.834 C 37.827 479.827, 72.989 487.492, 130.500 492.451 C 175.916 496.367, 240.461 496.884, 326.500 494.019 C 396.295 491.695, 452.257 485.420, 466.859 478.280 C 472.513 475.516, 472.272 472.678, 466.118 469.560 C 456.204 464.536, 427.985 458.678, 407.652 457.424 L 397.500 456.798 383.500 463.791 C 350.884 480.082, 324.570 487.399, 293.901 488.705 C 272.391 489.622, 252.588 486.506, 228 478.335 C 199.521 468.871, 172.833 454.021, 148.887 434.313 C 144.700 430.867, 136.150 424.825, 129.887 420.887 C 113.579 410.633, 108.132 406.251, 93.432 391.560 C 75.144 373.284, 65.832 360.637, 55.630 340.221 C 40.246 309.431, 33.838 283.021, 33.862 250.500 C 33.881 224.503, 36.692 206.220, 44.203 183.238 C 49.373 167.420, 61.752 142.619, 70.743 130.067 C 78.871 118.720, 96.377 100.252, 107.446 91.348 C 123.492 78.441, 144.721 66.969, 166.500 59.436 C 172.550 57.343, 181.325 53.478, 186 50.847 C 197.206 44.540, 219.022 35.037, 231.500 31.028 C 249.601 25.211, 261.330 22.980, 277.335 22.310 L 292.169 21.690 291.593 26.095 C 291.275 28.518, 290.543 35.900, 289.965 42.500 C 289.086 52.525, 282.290 107.212, 280.457 119 C 280.158 120.925, 279.523 135.550, 279.046 151.500 C 278.321 175.764, 277.819 182.051, 275.971 190 C 272.894 203.233, 272.066 204.066, 272.030 193.962 C 272.014 189.266, 271.329 180.041, 270.508 173.462 C 268.596 158.129, 268.598 138.768, 270.516 120.509 C 272.152 104.928, 272.362 103.654, 279.806 64 C 282.543 49.425, 285.058 34.929, 285.395 31.788 C 286.190 24.385, 284.933 23.571, 274.170 24.523 C 244.362 27.160, 217.728 35.950, 184.648 54.070 C 169.049 62.614, 165.006 65.276, 154.767 73.747 C 141.073 85.076, 124.485 104.625, 112.975 123 C 95.594 150.746, 78.831 197.622, 74.515 230.548 C 70.866 258.380, 73.707 294.536, 81.390 318.065 C 85.764 331.459, 95.948 356.256, 102.276 368.924 C 113.400 391.190, 128.548 412.045, 143.773 426.055 C 183.940 463.018, 239.754 486.236, 288.500 486.259 C 318.111 486.274, 346.260 478.934, 381.500 462.010 C 429.747 438.840, 467.956 391.707, 489.093 329.288 C 498.910 300.298, 503.596 260.809, 501.053 228.500 C 498.960 201.903, 495.666 186.145, 487.407 163.219 C 471.167 118.138, 444.548 82.473, 405.500 53.479 C 381.709 35.813, 359.193 24.971, 333.984 19.040 C 315.208 14.622, 286.948 12.944, 268 15.121 M 294.604 23.750 C 293.966 25.855, 292.334 46.101, 291.521 62 C 290.413 83.663, 288.937 107.502, 287.991 119 C 287.472 125.325, 286.572 139.725, 285.992 151 C 285.412 162.275, 284.488 174.599, 283.938 178.386 C 283.389 182.174, 283.148 185.481, 283.403 185.736 C 283.658 185.991, 285.479 185.667, 287.450 185.016 C 293.824 182.913, 294.692 179.199, 297.972 140 C 300.673 107.715, 302.509 91.478, 306.054 68.500 C 307.667 58.050, 309.284 43.313, 309.647 35.750 L 310.308 22 302.721 22 C 296.365 22, 295.049 22.284, 294.604 23.750 M 319 24.981 C 319 25.520, 320.012 26.166, 321.250 26.415 C 361.417 34.496, 393.359 51.989, 426.380 83.988 C 448.020 104.958, 459.804 120.843, 470.520 143.490 C 473.385 149.546, 476.477 156.075, 477.390 158 C 479.009 161.411, 479.036 161.424, 478.462 158.500 C 478.138 156.850, 475.657 150.841, 472.948 145.146 C 445.530 87.501, 388.380 39.880, 330 26.030 C 320.330 23.736, 319 23.610, 319 24.981 M 314.371 40.657 C 314.005 42.118, 314.211 53.256, 314.831 65.407 C 316.880 105.593, 317.014 113.329, 315.996 132.474 C 314.314 164.080, 311.994 179.665, 306.313 197.500 C 299.920 217.572, 297.171 220.409, 284.054 220.464 C 275.645 220.500, 275.598 220.486, 273.425 217.282 L 271.242 214.064 270.053 218.282 C 268.649 223.258, 267.309 225.242, 264.250 226.872 C 261.360 228.411, 260.227 227.799, 248.849 218.537 C 232.668 205.366, 206.977 193.871, 177.354 186.547 C 154.991 181.018, 147.397 179.621, 122.720 176.501 C 96.448 173.179, 98.372 173.008, 96.644 178.828 C 94.307 186.696, 90.716 202.051, 91.123 202.434 C 93.759 204.913, 196.982 240.966, 211.124 244.347 C 213.550 244.927, 213.844 244.630, 215.030 240.393 C 216.480 235.213, 216.161 234.746, 210 233.018 C 186.341 226.387, 131.925 206.742, 133.328 205.339 C 134.334 204.332, 169.707 213.890, 191.594 221.082 C 204.845 225.437, 216.199 229, 216.825 229 C 218.645 229, 219.392 224.180, 217.862 222.315 C 214.120 217.755, 182.040 205.585, 156.193 198.921 C 141.617 195.163, 109.180 189, 103.975 189 C 99.582 189, 99.143 188.239, 101.750 185.143 L 103.500 183.063 126.500 186.988 C 166.899 193.881, 188.003 198.906, 213.500 207.703 C 224.355 211.448, 244.338 221.072, 251.523 226.016 C 259.692 231.636, 262.078 240.456, 257.750 249.038 C 254.322 255.836, 250.974 256.621, 234.500 254.493 C 210.360 251.374, 180.404 242.156, 137.500 224.645 C 122.100 218.359, 106.912 212.048, 103.750 210.621 C 100.588 209.193, 98 208.211, 98 208.438 C 98 208.664, 100.362 210.156, 103.250 211.752 C 106.138 213.348, 114.754 218.618, 122.397 223.463 C 145.926 238.375, 178.761 252.924, 200.354 258.003 C 204.834 259.057, 213.675 260.406, 220 261.001 C 246.831 263.523, 250.237 263.952, 251.453 264.961 C 252.156 265.545, 253.298 268.694, 253.991 271.959 C 255.200 277.657, 255.148 278.069, 252.697 282.198 C 251.293 284.564, 246.225 290.775, 241.435 296 C 221.268 318.001, 204.397 349.260, 176.551 416.221 C 173.413 423.767, 171.132 430.405, 171.482 430.971 C 171.832 431.537, 172.980 432, 174.035 432 C 176.654 432, 181.876 422.854, 199.444 387.500 C 207.370 371.550, 216.637 353.550, 220.039 347.500 C 223.440 341.450, 230.045 329.300, 234.717 320.500 C 251.128 289.582, 257.437 281.014, 263.800 281.004 C 269.493 280.994, 278.595 289.731, 279.648 296.216 L 280.198 299.606 286.164 298.149 C 295.909 295.768, 296.368 296.173, 314.041 322.698 C 335.148 354.380, 345.183 366.970, 374.067 398.011 C 382.005 406.542, 391.593 417.004, 395.373 421.261 C 401.518 428.181, 405 430.662, 405 428.119 C 405 425.482, 386.677 400.467, 370.758 381.371 C 360.716 369.326, 348.900 354.806, 344.500 349.104 C 336.501 338.739, 326.924 326.752, 310 305.923 C 305.050 299.831, 301 294.188, 301 293.384 C 301 290.915, 304.894 284.127, 306.938 283.033 C 308 282.465, 311.733 282, 315.234 282 C 318.735 282, 322.120 281.480, 322.755 280.845 C 323.628 279.972, 325.811 281.117, 331.705 285.544 C 348.355 298.047, 373.740 325.159, 386.907 344.500 C 396.257 358.235, 400.405 366.098, 411.918 391.915 C 417.378 404.161, 422.067 414.401, 422.337 414.671 C 423.249 415.583, 427 412.942, 427 411.388 C 427 408.523, 418.278 387.595, 410.149 370.956 C 400.547 351.302, 393.452 339.730, 383.455 327.419 C 373.065 314.624, 350.656 293.173, 336.155 282.142 C 329.390 276.995, 323.620 272.173, 323.333 271.425 C 322.420 269.046, 324.558 264.544, 327.216 263.247 C 328.629 262.558, 335.527 261.528, 342.545 260.958 C 373.760 258.423, 395.540 251.719, 424 235.885 C 435.457 229.511, 461.585 211.252, 460.624 210.291 C 460.400 210.066, 451.117 215.775, 439.996 222.978 C 415.224 239.022, 414.537 239.374, 404 241.447 C 399.325 242.367, 390.096 244.642, 383.491 246.504 C 365.013 251.711, 354.864 253.725, 338 255.532 C 329.475 256.445, 322.076 257.261, 321.558 257.346 C 321.039 257.431, 320.298 255.475, 319.910 253 C 319.522 250.525, 318.304 246.235, 317.202 243.466 C 315.480 239.138, 315.376 238.015, 316.463 235.466 C 317.158 233.835, 318.601 231.722, 319.670 230.770 C 321.648 229.009, 345.527 217.328, 357.114 212.453 C 360.626 210.976, 370.250 206.613, 378.500 202.758 C 406.142 189.844, 424.296 183.456, 444.500 179.534 C 477.971 173.038, 482.621 172.569, 480.566 175.893 C 480.203 176.480, 474.640 178.600, 468.203 180.604 C 454.426 184.894, 389.969 206.829, 371.407 213.544 C 354.831 219.540, 343 224.943, 343 226.517 C 343 227.198, 343.679 228.318, 344.508 229.007 C 346.497 230.657, 346.947 230.525, 409.245 210.070 C 437.435 200.813, 461.850 192.961, 463.500 192.619 C 471.549 190.954, 416.387 215.318, 403 219.341 C 398.325 220.746, 384.650 224.817, 372.611 228.387 C 360.572 231.957, 350.397 235.243, 350 235.689 C 348.646 237.210, 350.941 243, 352.897 243 C 355.929 243, 409.690 226.328, 421 221.881 C 438.642 214.943, 462.888 202.651, 475 194.503 C 481.325 190.249, 486.669 186.613, 486.876 186.424 C 487.553 185.807, 481.822 170.415, 480.031 168.041 L 478.283 165.723 462.391 167.909 C 434.008 171.812, 419.734 175.600, 391.500 186.723 C 367.616 196.133, 338.889 211.363, 324.624 222.178 C 319.654 225.946, 315.118 228.893, 314.544 228.726 C 313.970 228.559, 312.246 225.852, 310.713 222.711 C 308.223 217.608, 307.599 217, 304.856 217 C 302.779 217, 301.960 216.596, 302.325 215.750 C 302.622 215.063, 305.557 208.650, 308.848 201.500 C 319.926 177.430, 321.418 170.357, 323.103 133.909 C 323.986 114.809, 323.988 103.366, 323.111 86.524 C 321.347 52.656, 317.037 30.035, 314.371 40.657 M 226 55 C 225.175 55.533, 224.950 55.969, 225.500 55.969 C 226.050 55.969, 227.175 55.533, 228 55 C 228.825 54.467, 229.050 54.031, 228.500 54.031 C 227.950 54.031, 226.825 54.467, 226 55 M 213.500 60.384 C 206.133 63.893, 197.743 68.545, 189.342 73.778 C 170.280 85.654, 146.778 108.997, 132.235 130.500 C 127.387 137.668, 120.459 150.509, 119.556 154 C 119.200 155.375, 121.067 152.437, 123.705 147.471 C 142.680 111.742, 174.860 80.865, 213 61.788 C 226.363 55.104, 226.726 54.084, 213.500 60.384 M 239 74.885 C 217.962 80.596, 194.873 93.438, 174.966 110.500 C 156.174 126.607, 136.722 152.770, 138.442 159.625 C 139.252 162.852, 149.281 170.566, 155.905 173.056 C 158.878 174.174, 167.645 176.468, 175.386 178.154 C 191.398 181.641, 201.678 185.059, 215.642 191.541 L 225.366 196.054 228.933 192.994 C 230.895 191.312, 234.924 188.037, 237.887 185.718 C 240.850 183.398, 244.675 180.299, 246.387 178.832 L 249.500 176.164 249.616 154.832 C 249.722 135.222, 250.025 131.764, 253.363 112 C 259.855 73.571, 258.333 69.637, 239 74.885 M 327.743 73.590 C 327.334 73.999, 327 75.634, 327 77.223 C 327 79.716, 327.652 80.394, 331.750 82.161 C 334.363 83.288, 339.748 85.747, 343.717 87.626 C 368.045 99.145, 394.413 124.531, 412.084 153.449 C 417.663 162.580, 419.322 163.564, 423.821 160.413 L 426.088 158.825 422.438 152.163 C 411.979 133.066, 390.985 109.433, 371.500 94.818 C 355.723 82.985, 330.557 70.776, 327.743 73.590 M 327.695 132.711 C 326.955 157.799, 325.710 168.283, 321.902 181.485 C 320.313 186.993, 319.010 191.986, 319.006 192.580 C 318.999 193.822, 327.269 200, 328.937 200 C 329.548 200, 339.675 195.241, 351.442 189.425 L 372.836 178.851 371.301 175.175 C 367.747 166.666, 359.352 150.918, 354.185 143.068 C 348.490 134.418, 336.585 119.674, 331.286 114.711 L 328.309 111.922 327.695 132.711 M 254.488 195.213 C 250.117 197.542, 242 204.327, 242 205.653 C 242 208.198, 244.755 208.190, 248.661 205.634 C 250.773 204.252, 253.738 202.821, 255.250 202.452 C 257.393 201.931, 257.997 201.200, 257.985 199.142 C 257.962 195.179, 256.865 193.947, 254.488 195.213 M 277.464 199.403 C 275.169 201.080, 274.818 207.870, 276.895 210.374 C 278.753 212.613, 283.586 212.414, 286 210 C 291.852 204.148, 284.113 194.541, 277.464 199.403 M 322.015 207.739 C 322.007 208.971, 321.111 212.319, 320.024 215.180 C 318.937 218.040, 318.222 220.555, 318.435 220.768 C 318.648 220.981, 319.987 219.441, 321.411 217.346 C 324.092 213.400, 324.677 209.595, 323 207 C 322.215 205.786, 322.028 205.927, 322.015 207.739 M 254.245 216.718 C 257.705 220.178, 259.259 221.141, 260.074 220.326 C 261.744 218.656, 259.687 215.554, 255.633 213.630 C 249.771 210.848, 249.338 211.811, 254.245 216.718 M 80.178 217.676 C 76.088 236.497, 76.207 272.290, 80.440 296.355 C 81.780 303.975, 83.129 310.463, 83.438 310.772 C 84.319 311.653, 84.109 309.137, 82.574 300.416 C 78.780 278.856, 78.087 244.215, 81.032 223.281 C 82.374 213.738, 81.821 210.111, 80.178 217.676 M 284.326 226.044 C 278.407 227.215, 274.907 229.254, 270.562 234.063 C 264.364 240.923, 262.511 246.084, 262.505 256.500 C 262.501 264.544, 262.795 266.002, 265.278 270.225 C 268.599 275.876, 275.733 281.580, 281.394 283.112 C 287.651 284.805, 297.648 283.728, 303.567 280.724 C 312.316 276.283, 317.639 265.156, 316.775 253.116 C 316.064 243.211, 312.049 236.786, 302.500 230.270 C 300.196 228.699, 288.933 224.526, 288.568 225.110 C 288.531 225.170, 286.622 225.590, 284.326 226.044 M 277.258 232.029 C 268.847 236.232, 267.223 238.727, 275.383 234.908 C 286.064 229.910, 295.417 230.859, 306.294 238.044 C 308.877 239.751, 308.667 239.386, 305.213 236.163 C 297.040 228.537, 287.168 227.077, 277.258 232.029 M 239.315 233.985 C 232.570 236.770, 234.506 247, 241.777 247 C 246.348 247, 249 244.454, 249 240.066 C 249 237.964, 248.435 235.776, 247.744 235.203 C 245.789 233.580, 241.721 232.993, 239.315 233.985 M 319.200 236.200 C 315.836 239.564, 319.875 248, 324.850 248 C 331.257 248, 334.364 241.364, 330 237 C 327.736 234.736, 321.152 234.248, 319.200 236.200 M 438.973 238.668 C 437.613 239.586, 436.338 240.461, 436.140 240.612 C 435.941 240.763, 435.650 248, 435.491 256.694 C 434.921 287.992, 427.028 321.889, 414.628 346.292 C 409.483 356.418, 409.353 356.874, 410.881 359.392 C 411.751 360.826, 412.994 362, 413.643 362 C 417.202 362, 426.948 343.824, 433.447 325.064 C 441.218 302.632, 444.589 284.927, 445.650 260.970 C 446.656 238.249, 445.469 234.285, 438.973 238.668 M 120.141 247.705 C 116.110 251.736, 115.394 257.398, 116.851 273.717 C 119.819 306.946, 131.312 340.711, 148.392 366.380 C 155.340 376.823, 159.293 380.393, 162.908 379.491 C 168.233 378.162, 171.225 374.014, 183.461 351 C 188.285 341.925, 196.728 327.579, 202.222 319.120 C 215.878 298.094, 215.539 299.114, 212.460 288.315 C 208.532 274.540, 208.309 274.152, 203.631 272.964 C 192.185 270.056, 184.024 267.158, 168.500 260.486 C 145.022 250.395, 133.318 246.038, 127.806 245.334 C 123.544 244.790, 122.838 245.008, 120.141 247.705 M 259.272 257 C 259.272 259.475, 259.467 260.488, 259.706 259.250 C 259.944 258.012, 259.944 255.988, 259.706 254.750 C 259.467 253.512, 259.272 254.525, 259.272 257 M 363.881 264.911 C 352.985 268.408, 349.624 270.800, 347.392 276.644 L 345.628 281.263 358.904 294.242 C 367.037 302.193, 372.538 306.862, 373.104 306.296 C 374.874 304.526, 377.013 290.410, 377.658 276.250 L 378.306 262 375.403 262.072 C 373.806 262.112, 368.621 263.390, 363.881 264.911 M 260.158 265 C 260.158 266.375, 260.385 266.938, 260.662 266.250 C 260.940 265.563, 260.940 264.438, 260.662 263.750 C 260.385 263.063, 260.158 263.625, 260.158 265 M 230.250 277.762 C 226.016 279.407, 224.875 281.683, 226.780 284.679 C 227.678 286.090, 238.500 279.664, 238.500 277.721 C 238.500 275.890, 235.022 275.907, 230.250 277.762 M 473.522 281 C 469.554 309.279, 451.965 353.411, 434.039 380.063 C 430.178 385.803, 427.029 391.175, 427.042 392 C 427.054 392.825, 427.710 394.354, 428.501 395.398 C 429.647 396.913, 430.229 397.055, 431.380 396.099 C 434.424 393.573, 444.743 376.867, 452.236 362.335 C 464.332 338.877, 470.778 317.157, 474.036 288.888 C 475.305 277.871, 474.879 271.328, 473.522 281 M 100.232 285 C 100.232 286.925, 100.438 287.712, 100.689 286.750 C 100.941 285.788, 100.941 284.212, 100.689 283.250 C 100.438 282.288, 100.232 283.075, 100.232 285 M 278 285 C 278.825 285.533, 280.175 285.945, 281 285.914 C 281.989 285.878, 281.819 285.567, 280.500 285 C 277.751 283.819, 276.172 283.819, 278 285 M 297.813 285.683 C 298.534 285.972, 299.397 285.936, 299.729 285.604 C 300.061 285.272, 299.471 285.036, 298.417 285.079 C 297.252 285.127, 297.015 285.364, 297.813 285.683 M 285.728 286.722 C 287.503 286.943, 290.653 286.946, 292.728 286.730 C 294.802 286.513, 293.350 286.333, 289.500 286.328 C 285.650 286.324, 283.952 286.501, 285.728 286.722 M 308.455 290.455 C 305.456 293.453, 305.351 295.905, 308.073 299.365 C 312.059 304.433, 320 301.822, 320 295.443 C 320 288.621, 313.218 285.691, 308.455 290.455 M 101.232 294 C 101.232 295.925, 101.438 296.712, 101.689 295.750 C 101.941 294.788, 101.941 293.212, 101.689 292.250 C 101.438 291.288, 101.232 292.075, 101.232 294 M 256.250 291.662 C 254.012 292.565, 254.781 298.871, 257.455 301.545 C 260.305 304.396, 261.982 304.578, 266.050 302.474 C 272.157 299.316, 268.622 290.924, 261.250 291.079 C 259.188 291.122, 256.938 291.385, 256.250 291.662 M 102.558 302.500 C 103.451 310.330, 109.833 334.261, 114.136 345.917 C 123.163 370.364, 134.349 388.969, 148.410 402.919 C 154.816 409.275, 156.111 410.153, 157.444 409.047 C 158.300 408.336, 159 407.078, 159 406.250 C 159 405.422, 154.838 400.405, 149.750 395.102 C 128.540 372.992, 113.126 343.200, 104.425 307.500 C 102.896 301.226, 102.201 299.363, 102.558 302.500 M 275.589 312.815 C 273.437 318.142, 268.093 330.375, 263.713 340 C 252.186 365.329, 241.865 389.199, 242.267 389.600 C 242.963 390.297, 260.552 361.173, 266.686 349.167 C 270.151 342.384, 274.082 333.159, 275.422 328.667 C 279.040 316.538, 281.360 304.958, 280.369 303.984 C 279.881 303.505, 277.783 307.381, 275.589 312.815 M 320 310.059 C 320 310.641, 320.450 310.840, 321 310.500 C 321.550 310.160, 322 309.684, 322 309.441 C 322 309.198, 321.550 309, 321 309 C 320.450 309, 320 309.477, 320 310.059 M 245.657 310.750 C 245.403 311.163, 241.145 320.308, 236.194 331.074 C 224.587 356.315, 219.637 365.164, 203.511 389.500 C 196.223 400.500, 188.093 413.325, 185.445 418 C 182.798 422.675, 178.914 429.063, 176.816 432.195 C 174.717 435.327, 173 438.327, 173 438.861 C 173 439.727, 178.619 444.575, 181.673 446.344 C 183.085 447.161, 191.714 435.629, 198.559 423.774 C 201.187 419.224, 209.174 405.600, 216.306 393.500 C 231.210 368.218, 239.718 352.311, 247.038 336.045 C 253.627 321.401, 253.892 319.657, 250.343 314.250 C 247.588 310.053, 246.558 309.284, 245.657 310.750 M 329.975 312.250 C 328.149 313.488, 326.478 315.036, 326.263 315.691 C 326.048 316.346, 328.939 320.190, 332.686 324.233 C 353.508 346.696, 377.581 377.863, 385.654 392.810 C 388.236 397.589, 393.602 406.675, 397.579 413 C 401.555 419.325, 405.610 426.188, 406.590 428.250 C 407.569 430.313, 408.672 432, 409.041 432 C 410.056 432, 419 425.010, 419 424.217 C 419 421.060, 385 371.121, 367.222 348.165 C 356.840 334.760, 335.357 310, 334.107 310 C 333.661 310, 331.801 311.012, 329.975 312.250 M 282.623 320.520 C 279.803 323.339, 280.775 324.112, 286.750 323.800 C 291.733 323.540, 292.500 323.233, 292.500 321.500 C 292.500 319.872, 291.733 319.444, 288.373 319.199 C 285.577 318.994, 283.722 319.421, 282.623 320.520 M 281.217 330.643 C 280.511 330.943, 277.066 337.109, 273.561 344.344 C 265.337 361.324, 247.417 388.703, 230.277 410.473 C 226.825 414.859, 224 419.032, 224 419.748 C 224 421.470, 227.624 422.768, 236.108 424.085 C 241.793 424.967, 244.556 424.866, 251.116 423.537 C 271.934 419.318, 297.642 406.685, 315 392.143 C 323.273 385.212, 332 376.813, 332 375.781 C 332 375.278, 327.987 369.834, 323.082 363.683 C 318.176 357.532, 311.303 348.696, 307.808 344.047 C 303.185 337.898, 300.233 334.987, 296.977 333.365 C 292.509 331.141, 283.647 329.610, 281.217 330.643 M 341.500 415.383 C 316.167 428.287, 301.114 431.950, 270.267 432.717 C 258.588 433.007, 249.248 433.593, 249.511 434.018 C 250.713 435.963, 267.716 437.212, 283.847 436.542 C 303.330 435.731, 315.099 433.613, 331.450 427.975 C 342.807 424.059, 360.263 416.002, 361.410 414.146 C 362.141 412.962, 358.211 407.962, 356.677 408.126 C 356.030 408.195, 349.200 411.461, 341.500 415.383 M 196.680 436.603 C 191.286 441.884, 187.138 446.472, 187.463 446.797 C 188.131 447.464, 199.576 436.465, 204.160 430.750 C 205.814 428.688, 207.015 427, 206.828 427 C 206.641 427, 202.074 431.321, 196.680 436.603 M 376 435.596 C 369.510 439.306, 352.796 446.444, 343.500 449.476 C 319.339 457.358, 299.558 460.459, 278.500 459.669 C 261.212 459.020, 250.514 457.007, 229.241 450.403 C 215.210 446.047, 211.063 445.394, 210.793 447.500 C 210.572 449.215, 224 455.743, 235.500 459.511 C 252.744 465.161, 266.585 467.285, 286.500 467.337 C 295.850 467.361, 306.875 466.834, 311 466.166 C 329.390 463.189, 354.220 455.248, 372.230 446.586 C 387.178 439.396, 386.537 439.939, 384.569 436.133 C 382.611 432.346, 381.777 432.294, 376 435.596 M 284.750 442.080 C 281.381 444.042, 283.873 452, 287.857 452 C 292.002 452, 293.557 445.719, 290.171 442.655 C 288.072 440.755, 287.186 440.661, 284.750 442.080" stroke="none" fill="black" fill-rule="evenodd"/>
</svg>